# xmcd
#
# Track frame offsets:
#	150
#	17233
#	32933
#	66321
#	93088
#	128986
#	141796
#	158879
#	176276
#	199359
#	218394
#	247902
#
# Disc length: 3934 seconds
#
# Revision: 0
# Processed by: cddbd v1.5PL3 Copyright (c) Steve Scherf et al.
# Submitted via: dBpowerAMP V4.0
#
DISCID=a20f5c0c
DTITLE=Stevie Wonder - Original Musiquarium 1
DYEAR=1900
DGENRE=
TTITLE0=Superstition
TTITLE1=You Haven't Done Nothing
TTITLE2=Living For The City
TTITLE3=Front Line
TTITLE4=Superwoman (Where Were You When I Needed You)
TTITLE5=You Are The Sunshine Of My Life
TTITLE6=Higher Ground
TTITLE7=Sir Duke
TTITLE8=Master Blaster (Jammin')
TTITLE9=I Wish
TTITLE10=Isn't She Lovely
TTITLE11=Do I So
EXTD=
EXTT0=
EXTT1=
EXTT2=
EXTT3=
EXTT4=
EXTT5=
EXTT6=
EXTT7=
EXTT8=
EXTT9=
EXTT10=
EXTT11=
PLAYORDER=
